<svg xmlns="http://www.w3.org/2000/svg" xmlns:xlink="http://www.w3.org/1999/xlink" width="500" zoomAndPan="magnify" viewBox="0 0 375 374.999991" height="500" preserveAspectRatio="xMidYMid meet" version="1.0"><defs><g/><clipPath id="38d8e112d5"><path d="M 34.5 94 L 132 94 L 132 208 L 34.5 208 Z M 34.5 94 " clip-rule="nonzero"/></clipPath><clipPath id="e4775e2e86"><path d="M 243 94 L 340.5 94 L 340.5 208 L 243 208 Z M 243 94 " clip-rule="nonzero"/></clipPath><clipPath id="7ce4e0fc67"><path d="M 135.234375 89.300781 L 239.765625 89.300781 L 239.765625 230.953125 L 135.234375 230.953125 Z M 135.234375 89.300781 " clip-rule="nonzero"/></clipPath><clipPath id="6717da1b47"><rect x="0" width="188" y="0" height="43"/></clipPath></defs><g clip-path="url(#38d8e112d5)"><path fill="#211d1d" d="M 38.929688 143.605469 L 119.054688 95.488281 C 120.261719 94.820312 121.601562 94.480469 123.078125 94.480469 C 125.292969 94.480469 127.1875 95.269531 128.765625 96.847656 C 130.34375 98.425781 131.132812 100.320312 131.132812 102.535156 C 131.132812 105.421875 129.753906 107.769531 127.003906 109.582031 L 58.15625 150.851562 L 127.003906 192.121094 C 129.753906 193.929688 131.132812 196.28125 131.132812 199.164062 C 131.132812 201.382812 130.34375 203.273438 128.765625 204.851562 C 127.1875 206.429688 125.292969 207.21875 123.078125 207.21875 C 121.601562 207.21875 120.261719 206.882812 119.054688 206.210938 L 38.929688 158.097656 C 35.976562 156.21875 34.5 153.800781 34.5 150.851562 C 34.5 147.898438 35.976562 145.480469 38.929688 143.605469 " fill-opacity="1" fill-rule="nonzero"/></g><g clip-path="url(#e4775e2e86)"><path fill="#211d1d" d="M 340.5 150.851562 C 340.5 153.800781 339.023438 156.21875 336.070312 158.097656 L 255.945312 206.210938 C 254.738281 206.882812 253.398438 207.21875 251.921875 207.21875 C 249.707031 207.21875 247.8125 206.429688 246.234375 204.851562 C 244.65625 203.273438 243.867188 201.382812 243.867188 199.164062 C 243.867188 196.28125 245.242188 193.929688 247.996094 192.121094 L 316.84375 150.851562 L 247.996094 109.582031 C 245.242188 107.769531 243.867188 105.421875 243.867188 102.535156 C 243.867188 100.320312 244.65625 98.425781 246.234375 96.847656 C 247.8125 95.269531 249.707031 94.480469 251.921875 94.480469 C 253.398438 94.480469 254.738281 94.820312 255.945312 95.488281 L 336.070312 143.605469 C 339.023438 145.480469 340.5 147.898438 340.5 150.851562 " fill-opacity="1" fill-rule="nonzero"/></g><g clip-path="url(#7ce4e0fc67)"><path fill="#67c656" d="M 226.902344 147.347656 C 217.753906 163.210938 197.476562 168.644531 181.609375 159.484375 C 165.742188 150.324219 160.308594 130.042969 169.46875 114.175781 C 178.632812 98.320312 198.910156 92.886719 214.765625 102.039062 C 230.632812 111.199219 236.066406 131.480469 226.902344 147.347656 Z M 218.910156 94.859375 C 218.898438 94.851562 218.886719 94.855469 218.871094 94.835938 C 199.050781 83.421875 173.730469 90.226562 162.289062 110.03125 C 151.574219 128.601562 156.847656 151.992188 173.816406 164.292969 L 166.15625 177.558594 L 163.25 175.882812 C 162.667969 175.539062 161.90625 175.742188 161.574219 176.332031 L 135.523438 221.472656 C 135.175781 222.058594 135.378906 222.816406 135.960938 223.152344 L 149.292969 230.847656 C 149.875 231.183594 150.632812 230.980469 150.980469 230.398438 L 177.03125 185.257812 C 177.367188 184.664062 177.164062 183.917969 176.582031 183.570312 L 173.675781 181.894531 L 179.46875 171.863281 L 181.324219 168.628906 C 200.476562 177.179688 223.378906 170.046875 234.085938 151.492188 C 245.53125 131.664062 238.738281 106.316406 218.910156 94.859375 " fill-opacity="1" fill-rule="nonzero"/></g><path fill="#67c656" d="M 205.097656 102.375 C 189.757812 105.253906 177.042969 114.917969 169.902344 127.960938 C 171.425781 114.117188 182.640625 102.894531 197.03125 101.84375 C 199.800781 101.644531 202.507812 101.839844 205.097656 102.375 " fill-opacity="1" fill-rule="nonzero"/><g transform="matrix(1, 0, 0, 1, 96, 245)"><g clip-path="url(#6717da1b47)"><g fill="#211d1d" fill-opacity="1"><g transform="translate(0.4955, 30.182826)"><g><path d="M 12.03125 -27.765625 C 13.507812 -27.765625 14.953125 -27.546875 16.359375 -27.109375 C 17.765625 -26.679688 18.8125 -26.257812 19.5 -25.84375 L 20.484375 -25.1875 L 17.984375 -20.21875 C 17.785156 -20.351562 17.507812 -20.523438 17.15625 -20.734375 C 16.800781 -20.941406 16.140625 -21.222656 15.171875 -21.578125 C 14.203125 -21.929688 13.296875 -22.109375 12.453125 -22.109375 C 11.421875 -22.109375 10.625 -21.882812 10.0625 -21.4375 C 9.5 -21 9.21875 -20.40625 9.21875 -19.65625 C 9.21875 -19.28125 9.347656 -18.929688 9.609375 -18.609375 C 9.878906 -18.296875 10.332031 -17.957031 10.96875 -17.59375 C 11.613281 -17.226562 12.175781 -16.9375 12.65625 -16.71875 C 13.144531 -16.5 13.894531 -16.171875 14.90625 -15.734375 C 16.664062 -14.984375 18.164062 -13.960938 19.40625 -12.671875 C 20.65625 -11.378906 21.28125 -9.921875 21.28125 -8.296875 C 21.28125 -6.734375 21 -5.367188 20.4375 -4.203125 C 19.875 -3.035156 19.101562 -2.117188 18.125 -1.453125 C 17.144531 -0.796875 16.0625 -0.304688 14.875 0.015625 C 13.6875 0.335938 12.394531 0.5 11 0.5 C 9.8125 0.5 8.644531 0.375 7.5 0.125 C 6.351562 -0.113281 5.394531 -0.414062 4.625 -0.78125 C 3.851562 -1.144531 3.160156 -1.5 2.546875 -1.84375 C 1.929688 -2.195312 1.476562 -2.5 1.1875 -2.75 L 0.765625 -3.109375 L 3.859375 -8.328125 C 4.128906 -8.109375 4.492188 -7.828125 4.953125 -7.484375 C 5.421875 -7.140625 6.242188 -6.679688 7.421875 -6.109375 C 8.597656 -5.535156 9.640625 -5.25 10.546875 -5.25 C 13.160156 -5.25 14.46875 -6.144531 14.46875 -7.9375 C 14.46875 -8.3125 14.375 -8.65625 14.1875 -8.96875 C 14 -9.289062 13.664062 -9.609375 13.1875 -9.921875 C 12.71875 -10.242188 12.300781 -10.5 11.9375 -10.6875 C 11.582031 -10.875 10.988281 -11.160156 10.15625 -11.546875 C 9.332031 -11.929688 8.722656 -12.222656 8.328125 -12.421875 C 6.671875 -13.234375 5.390625 -14.25 4.484375 -15.46875 C 3.585938 -16.695312 3.140625 -18.019531 3.140625 -19.4375 C 3.140625 -21.875 4.039062 -23.867188 5.84375 -25.421875 C 7.65625 -26.984375 9.71875 -27.765625 12.03125 -27.765625 Z M 12.03125 -27.765625 "/></g></g></g><g fill="#211d1d" fill-opacity="1"><g transform="translate(27.00143, 30.182826)"><g><path d="M 0.765625 -13.640625 C 0.765625 -17.585938 2.109375 -20.925781 4.796875 -23.65625 C 7.484375 -26.394531 10.71875 -27.765625 14.5 -27.765625 C 18.3125 -27.765625 21.550781 -26.398438 24.21875 -23.671875 C 26.882812 -20.953125 28.21875 -17.609375 28.21875 -13.640625 C 28.21875 -9.660156 26.90625 -6.304688 24.28125 -3.578125 C 21.664062 -0.859375 18.40625 0.5 14.5 0.5 C 10.519531 0.5 7.234375 -0.847656 4.640625 -3.546875 C 2.054688 -6.242188 0.765625 -9.609375 0.765625 -13.640625 Z M 7.46875 -13.640625 C 7.46875 -12.210938 7.6875 -10.910156 8.125 -9.734375 C 8.570312 -8.554688 9.34375 -7.554688 10.4375 -6.734375 C 11.539062 -5.921875 12.894531 -5.515625 14.5 -5.515625 C 16.820312 -5.515625 18.570312 -6.304688 19.75 -7.890625 C 20.925781 -9.484375 21.515625 -11.398438 21.515625 -13.640625 C 21.515625 -15.867188 20.910156 -17.78125 19.703125 -19.375 C 18.503906 -20.976562 16.769531 -21.78125 14.5 -21.78125 C 12.257812 -21.78125 10.523438 -20.976562 9.296875 -19.375 C 8.078125 -17.78125 7.46875 -15.867188 7.46875 -13.640625 Z M 7.46875 -13.640625 "/></g></g></g><g fill="#211d1d" fill-opacity="1"><g transform="translate(60.282086, 30.182826)"><g><path d="M 17.75 -27.265625 L 17.75 -21.8125 L 8.203125 -21.8125 L 8.203125 -16.390625 L 17.015625 -16.390625 L 17.015625 -10.9375 L 8.203125 -10.9375 L 8.203125 0 L 1.984375 0 L 1.984375 -27.265625 Z M 17.75 -27.265625 "/></g></g></g><g fill="#211d1d" fill-opacity="1"><g transform="translate(83.318029, 30.182826)"><g><path d="M 0.265625 -21.8125 L 0.265625 -27.265625 L 19.4375 -27.265625 L 19.4375 -21.8125 L 12.953125 -21.8125 L 12.953125 0 L 6.734375 0 L 6.734375 -21.8125 Z M 0.265625 -21.8125 "/></g></g></g><g fill="#67c656" fill-opacity="1"><g transform="translate(107.313379, 30.182826)"><g><path d="M 8.203125 -27.265625 L 8.203125 -5.453125 L 17.578125 -5.453125 L 17.578125 0 L 1.984375 0 L 1.984375 -27.265625 Z M 8.203125 -27.265625 "/></g></g></g><g fill="#67c656" fill-opacity="1"><g transform="translate(130.283212, 30.182826)"><g><path d="M 15.828125 -27.265625 L 26.828125 0 L 20.15625 0 L 18.140625 -5.453125 L 7.765625 -5.453125 L 5.75 0 L -0.921875 0 L 10.078125 -27.265625 Z M 16.03125 -10.90625 L 12.984375 -18.84375 L 12.921875 -18.84375 L 9.875 -10.90625 Z M 16.03125 -10.90625 "/></g></g></g><g fill="#67c656" fill-opacity="1"><g transform="translate(160.490457, 30.182826)"><g><path d="M 1.984375 -27.265625 L 10.4375 -27.265625 C 13 -27.265625 15.039062 -26.71875 16.5625 -25.625 C 18.082031 -24.53125 18.84375 -22.765625 18.84375 -20.328125 C 18.84375 -17.585938 17.707031 -15.632812 15.4375 -14.46875 C 19.3125 -13.789062 21.25 -11.5 21.25 -7.59375 C 21.25 -5.300781 20.453125 -3.460938 18.859375 -2.078125 C 17.273438 -0.691406 15.097656 0 12.328125 0 L 1.984375 0 Z M 8.203125 -16.59375 L 8.6875 -16.59375 C 10.070312 -16.59375 11.109375 -16.832031 11.796875 -17.3125 C 12.484375 -17.800781 12.828125 -18.597656 12.828125 -19.703125 C 12.828125 -21.546875 11.445312 -22.46875 8.6875 -22.46875 L 8.203125 -22.46875 Z M 8.203125 -4.796875 L 10.140625 -4.796875 C 13.179688 -4.796875 14.703125 -5.804688 14.703125 -7.828125 C 14.703125 -9.046875 14.320312 -9.914062 13.5625 -10.4375 C 12.800781 -10.96875 11.660156 -11.234375 10.140625 -11.234375 L 8.203125 -11.234375 Z M 8.203125 -4.796875 "/></g></g></g></g></g></svg>